<mxfile host="app.diagrams.net" modified="2020-06-15T12:16:19.509Z" agent="5.0 (Windows NT 6.1; Win64; x64) AppleWebKit/537.36 (KHTML, like Gecko) Chrome/83.0.4103.97 Safari/537.36" etag="XpF9Z8MjGlASQGx0L_6q" version="13.2.4" type="github">
  <diagram id="YU8ZLa2Sdudei7c_uUe5" name="Page-1">
    <mxGraphModel dx="2249" dy="745" grid="1" gridSize="10" guides="1" tooltips="1" connect="1" arrows="1" fold="1" page="1" pageScale="1" pageWidth="827" pageHeight="1169" math="0" shadow="0">
      <root>
        <mxCell id="0" />
        <mxCell id="1" parent="0" />
        <mxCell id="JTC5fAnK3KKhMQ7cFb07-1" value="ResService//单体" style="rounded=1;whiteSpace=wrap;html=1;" vertex="1" parent="1">
          <mxGeometry x="580" y="270" width="120" height="60" as="geometry" />
        </mxCell>
        <mxCell id="JTC5fAnK3KKhMQ7cFb07-6" value="Update" style="swimlane;fontStyle=1;align=center;verticalAlign=top;childLayout=stackLayout;horizontal=1;startSize=26;horizontalStack=0;resizeParent=1;resizeParentMax=0;resizeLast=0;collapsible=1;marginBottom=0;" vertex="1" parent="1">
          <mxGeometry x="340" y="542" width="160" height="86" as="geometry" />
        </mxCell>
        <mxCell id="JTC5fAnK3KKhMQ7cFb07-7" value="+ field: type" style="text;strokeColor=none;fillColor=none;align=left;verticalAlign=top;spacingLeft=4;spacingRight=4;overflow=hidden;rotatable=0;points=[[0,0.5],[1,0.5]];portConstraint=eastwest;" vertex="1" parent="JTC5fAnK3KKhMQ7cFb07-6">
          <mxGeometry y="26" width="160" height="26" as="geometry" />
        </mxCell>
        <mxCell id="JTC5fAnK3KKhMQ7cFb07-8" value="" style="line;strokeWidth=1;fillColor=none;align=left;verticalAlign=middle;spacingTop=-1;spacingLeft=3;spacingRight=3;rotatable=0;labelPosition=right;points=[];portConstraint=eastwest;" vertex="1" parent="JTC5fAnK3KKhMQ7cFb07-6">
          <mxGeometry y="52" width="160" height="8" as="geometry" />
        </mxCell>
        <mxCell id="JTC5fAnK3KKhMQ7cFb07-9" value="+ method(type): type" style="text;strokeColor=none;fillColor=none;align=left;verticalAlign=top;spacingLeft=4;spacingRight=4;overflow=hidden;rotatable=0;points=[[0,0.5],[1,0.5]];portConstraint=eastwest;" vertex="1" parent="JTC5fAnK3KKhMQ7cFb07-6">
          <mxGeometry y="60" width="160" height="26" as="geometry" />
        </mxCell>
        <mxCell id="JTC5fAnK3KKhMQ7cFb07-10" value="ConfigRequestState" style="html=1;" vertex="1" parent="1">
          <mxGeometry x="70" y="400" width="110" height="50" as="geometry" />
        </mxCell>
        <mxCell id="JTC5fAnK3KKhMQ7cFb07-11" value="Use" style="endArrow=open;endSize=12;dashed=1;html=1;" edge="1" parent="1" source="JTC5fAnK3KKhMQ7cFb07-14" target="JTC5fAnK3KKhMQ7cFb07-6">
          <mxGeometry width="160" relative="1" as="geometry">
            <mxPoint x="230" y="440" as="sourcePoint" />
            <mxPoint x="390" y="440" as="targetPoint" />
          </mxGeometry>
        </mxCell>
        <mxCell id="JTC5fAnK3KKhMQ7cFb07-12" value="Use" style="endArrow=open;endSize=12;dashed=1;html=1;" edge="1" parent="1" source="JTC5fAnK3KKhMQ7cFb07-10" target="JTC5fAnK3KKhMQ7cFb07-15">
          <mxGeometry width="160" relative="1" as="geometry">
            <mxPoint x="240" y="450" as="sourcePoint" />
            <mxPoint x="189.54918032786895" y="530" as="targetPoint" />
          </mxGeometry>
        </mxCell>
        <mxCell id="JTC5fAnK3KKhMQ7cFb07-14" value="xClientProxy" style="html=1;" vertex="1" parent="1">
          <mxGeometry x="220" y="340" width="110" height="50" as="geometry" />
        </mxCell>
        <mxCell id="JTC5fAnK3KKhMQ7cFb07-15" value="Start" style="swimlane;fontStyle=0;childLayout=stackLayout;horizontal=1;startSize=26;fillColor=none;horizontalStack=0;resizeParent=1;resizeParentMax=0;resizeLast=0;collapsible=1;marginBottom=0;" vertex="1" parent="1">
          <mxGeometry x="-140" y="560" width="340" height="78" as="geometry" />
        </mxCell>
        <mxCell id="JTC5fAnK3KKhMQ7cFb07-16" value="m_downloader2.Start(m_download_thread_num);" style="text;strokeColor=none;fillColor=none;align=left;verticalAlign=top;spacingLeft=4;spacingRight=4;overflow=hidden;rotatable=0;points=[[0,0.5],[1,0.5]];portConstraint=eastwest;" vertex="1" parent="JTC5fAnK3KKhMQ7cFb07-15">
          <mxGeometry y="26" width="340" height="26" as="geometry" />
        </mxCell>
        <mxCell id="JTC5fAnK3KKhMQ7cFb07-18" value="_bDownloadFile = true;   //控制update进行" style="text;strokeColor=none;fillColor=none;align=left;verticalAlign=top;spacingLeft=4;spacingRight=4;overflow=hidden;rotatable=0;points=[[0,0.5],[1,0.5]];portConstraint=eastwest;" vertex="1" parent="JTC5fAnK3KKhMQ7cFb07-15">
          <mxGeometry y="52" width="340" height="26" as="geometry" />
        </mxCell>
      </root>
    </mxGraphModel>
  </diagram>
</mxfile>
